# Blender 4.1.1
# www.blender.org
mtllib rail.mtl
o 立方体.004
v -3.170136 1.381462 0.191195
v -3.170136 1.130574 0.191195
v -3.170136 1.381462 -0.191195
v 2.848242 1.381463 0.191195
v 2.848242 1.381463 -0.191195
v 2.848242 1.130575 0.191195
v 2.848242 1.130575 -0.191195
v -3.170136 1.130574 -0.191195
v -2.642313 3.000000 0.191195
v -2.642313 3.000000 -0.191195
v -2.893200 3.000000 0.191195
v -2.893200 3.000000 -0.191195
v -2.642313 -3.000000 0.191195
v -2.642313 -3.000000 -0.191195
v -2.893200 -3.000000 0.191195
v -2.893200 -3.000000 -0.191195
v 2.603068 3.000000 0.191195
v 2.352180 3.000000 0.191195
v 2.603068 3.000000 -0.191195
v 2.603068 -3.000000 0.191195
v 2.603068 -3.000000 -0.191195
v 2.352180 -3.000000 0.191195
v 2.352180 -3.000000 -0.191195
v 2.352180 3.000000 -0.191195
v -3.170136 2.582734 0.191195
v -3.170136 2.331846 0.191195
v -3.170136 2.582734 -0.191195
v 2.848242 2.582734 0.191195
v 2.848242 2.582734 -0.191195
v 2.848242 2.331846 0.191195
v 2.848242 2.331846 -0.191195
v -3.170136 2.331846 -0.191195
v -3.170136 0.091282 0.191195
v -3.170136 -0.159606 0.191195
v -3.170136 0.091282 -0.191195
v 2.848242 0.091282 0.191195
v 2.848242 0.091282 -0.191195
v 2.848242 -0.159605 0.191195
v 2.848242 -0.159605 -0.191195
v -3.170136 -0.159606 -0.191195
v -3.170136 -1.139446 0.191195
v -3.170136 -1.390333 0.191195
v -3.170136 -1.139446 -0.191195
v 2.848242 -1.139445 0.191195
v 2.848242 -1.139445 -0.191195
v 2.848242 -1.390333 0.191195
v 2.848242 -1.390333 -0.191195
v -3.170136 -1.390333 -0.191195
v -3.170136 -2.358944 0.191195
v -3.170136 -2.609832 0.191195
v -3.170136 -2.358944 -0.191195
v 2.848242 -2.358943 0.191195
v 2.848242 -2.358943 -0.191195
v 2.848242 -2.609831 0.191195
v 2.848242 -2.609831 -0.191195
v -3.170136 -2.609832 -0.191195
vn -0.0000 -0.0000 1.0000
vn -1.0000 -0.0000 -0.0000
vn -0.0000 1.0000 -0.0000
vn -0.0000 -1.0000 -0.0000
vn 1.0000 -0.0000 -0.0000
vn -0.0000 -0.0000 -1.0000
vt 0.479091 0.520908
vt 0.346507 0.666458
vt 0.340024 0.659976
vt 0.343422 0.365478
vt 0.340024 0.381841
vt 0.333542 0.375359
vt 0.495455 0.517511
vt 0.634522 0.656578
vt 0.624641 0.666458
vt 0.485574 0.527391
vt 0.349905 0.371961
vt 0.488972 0.511028
vt 0.628039 0.371961
vt 0.634522 0.378444
vt 0.375359 0.010854
vt 0.371961 0.027217
vt 0.365478 0.020734
vt 0.381841 0.017336
vt 0.526996 0.182252
vt 0.536877 0.172372
vt 0.533479 0.188735
vt 0.543359 0.178855
vt 0.688514 0.343771
vt 0.378443 0.343771
vt 0.371961 0.337288
vt 0.691912 0.017336
vt 0.698395 0.333890
vt 0.698395 0.023819
vt 0.172372 0.172372
vt 0.010854 0.023819
vt 0.017336 0.017336
vt 0.343771 0.020734
vt 0.327407 0.017336
vt 0.333890 0.010854
vt 0.175770 0.188735
vt 0.020734 0.343771
vt 0.010854 0.333890
vt 0.165889 0.178855
vt 0.337288 0.027217
vt 0.182252 0.182252
vt 0.337288 0.337288
vt 0.330805 0.343771
vt 0.479091 0.843596
vt 0.346507 0.989146
vt 0.340024 0.982664
vt 0.343422 0.688166
vt 0.340024 0.704529
vt 0.333542 0.698047
vt 0.495455 0.840199
vt 0.634522 0.979266
vt 0.624641 0.989146
vt 0.485574 0.850079
vt 0.349905 0.694649
vt 0.488972 0.833716
vt 0.628039 0.694649
vt 0.634522 0.701131
vt 0.166284 0.511028
vt 0.298869 0.365478
vt 0.305351 0.371961
vt 0.301953 0.666458
vt 0.305351 0.650095
vt 0.311834 0.656578
vt 0.149921 0.514426
vt 0.010854 0.375359
vt 0.020734 0.365478
vt 0.159802 0.504545
vt 0.295471 0.659976
vt 0.156404 0.520908
vt 0.017336 0.659976
vt 0.010854 0.653493
vt 0.801779 0.520909
vt 0.669195 0.666458
vt 0.662712 0.659976
vt 0.666110 0.365478
vt 0.662712 0.381841
vt 0.656229 0.375359
vt 0.818143 0.517511
vt 0.957210 0.656578
vt 0.947329 0.666458
vt 0.808262 0.527391
vt 0.672593 0.371961
vt 0.811660 0.511028
vt 0.950727 0.371961
vt 0.957210 0.378444
vt 0.166284 0.843596
vt 0.311834 0.976181
vt 0.305351 0.982664
vt 0.010854 0.979266
vt 0.027217 0.982664
vt 0.020734 0.989146
vt 0.162886 0.827233
vt 0.301953 0.688166
vt 0.311834 0.698047
vt 0.172767 0.837114
vt 0.017336 0.972783
vt 0.156404 0.833716
vt 0.017336 0.694649
vt 0.023819 0.688166
s 0
usemtl マテリアル
f 6/1/1 1/2/1 2/3/1
f 3/4/2 2/5/2 1/6/2
f 5/7/3 3/8/3 1/9/3
f 6/1/1 4/10/1 1/2/1
f 5/7/3 1/9/3 4/10/3
f 8/11/4 6/1/4 2/5/4
f 8/11/4 7/12/4 6/1/4
f 7/12/5 4/10/5 6/1/5
f 8/13/6 3/14/6 5/7/6
f 3/4/2 8/11/2 2/5/2
f 8/13/6 5/7/6 7/12/6
f 7/12/5 5/7/5 4/10/5
f 10/15/3 11/16/3 9/17/3
f 12/18/2 15/19/2 11/16/2
f 16/20/4 13/21/4 15/19/4
f 14/22/5 9/23/5 13/21/5
f 15/19/1 9/24/1 11/25/1
f 12/26/6 14/22/6 16/20/6
f 10/15/3 12/18/3 11/16/3
f 12/18/2 16/20/2 15/19/2
f 16/20/4 14/22/4 13/21/4
f 14/22/5 10/27/5 9/23/5
f 15/19/1 13/21/1 9/24/1
f 12/26/6 10/28/6 14/22/6
f 22/29/1 17/30/1 18/31/1
f 19/32/3 18/33/3 17/34/3
f 21/35/5 19/36/5 17/37/5
f 22/29/1 20/38/1 17/30/1
f 21/35/5 17/37/5 20/38/5
f 24/39/2 22/29/2 18/33/2
f 24/39/2 23/40/2 22/29/2
f 23/40/4 20/38/4 22/29/4
f 24/41/6 19/42/6 21/35/6
f 19/32/3 24/39/3 18/33/3
f 24/41/6 21/35/6 23/40/6
f 23/40/4 21/35/4 20/38/4
f 30/43/1 25/44/1 26/45/1
f 27/46/2 26/47/2 25/48/2
f 29/49/3 27/50/3 25/51/3
f 30/43/1 28/52/1 25/44/1
f 29/49/3 25/51/3 28/52/3
f 32/53/4 30/43/4 26/47/4
f 32/53/4 31/54/4 30/43/4
f 31/54/5 28/52/5 30/43/5
f 32/55/6 27/56/6 29/49/6
f 27/46/2 32/53/2 26/47/2
f 32/55/6 29/49/6 31/54/6
f 31/54/5 29/49/5 28/52/5
f 38/57/1 33/58/1 34/59/1
f 35/60/2 34/61/2 33/62/2
f 37/63/3 35/64/3 33/65/3
f 38/57/1 36/66/1 33/58/1
f 37/63/3 33/65/3 36/66/3
f 40/67/4 38/57/4 34/61/4
f 40/67/4 39/68/4 38/57/4
f 39/68/5 36/66/5 38/57/5
f 40/69/6 35/70/6 37/63/6
f 35/60/2 40/67/2 34/61/2
f 40/69/6 37/63/6 39/68/6
f 39/68/5 37/63/5 36/66/5
f 46/71/1 41/72/1 42/73/1
f 43/74/2 42/75/2 41/76/2
f 45/77/3 43/78/3 41/79/3
f 46/71/1 44/80/1 41/72/1
f 45/77/3 41/79/3 44/80/3
f 48/81/4 46/71/4 42/75/4
f 48/81/4 47/82/4 46/71/4
f 47/82/5 44/80/5 46/71/5
f 48/83/6 43/84/6 45/77/6
f 43/74/2 48/81/2 42/75/2
f 48/83/6 45/77/6 47/82/6
f 47/82/5 45/77/5 44/80/5
f 54/85/1 49/86/1 50/87/1
f 51/88/2 50/89/2 49/90/2
f 53/91/3 51/92/3 49/93/3
f 54/85/1 52/94/1 49/86/1
f 53/91/3 49/93/3 52/94/3
f 56/95/4 54/85/4 50/89/4
f 56/95/4 55/96/4 54/85/4
f 55/96/5 52/94/5 54/85/5
f 56/97/6 51/98/6 53/91/6
f 51/88/2 56/95/2 50/89/2
f 56/97/6 53/91/6 55/96/6
f 55/96/5 53/91/5 52/94/5
